<svg width="30" height="30" viewBox="0 0 30 30" fill="none" xmlns="http://www.w3.org/2000/svg">
<path fill-rule="evenodd" clip-rule="evenodd" d="M15.0378 3.10797C15.3122 3.56632 15.2649 4.14838 14.9203 4.55651C13.4313 6.31964 12.5349 8.59576 12.5349 11.0845C12.5349 16.6759 17.0677 21.2086 22.6591 21.2086C23.3857 21.2086 24.0931 21.1323 24.7742 20.9876C25.2967 20.8766 25.832 21.11 26.1064 21.5683C26.3808 22.0267 26.3336 22.6087 25.9889 23.0168C23.6751 25.7567 20.2106 27.5 16.3401 27.5C9.36797 27.5 3.71594 21.848 3.71594 14.8759C3.71594 8.80617 7.99827 3.73955 13.7056 2.52728C14.2281 2.41629 14.7634 2.64962 15.0378 3.10797ZM10.9795 6.28539C8.11867 8.07462 6.21594 11.2538 6.21594 14.8759C6.21594 20.4673 10.7487 25 16.3401 25C18.1836 25 19.9118 24.5078 21.4008 23.6467C15.0194 23.0152 10.0349 17.6319 10.0349 11.0845C10.0349 9.38611 10.3708 7.76522 10.9795 6.28539Z" fill="white"/>
</svg>
