<svg width="30" height="30" viewBox="0 0 30 30" fill="none" xmlns="http://www.w3.org/2000/svg">
<path fill-rule="evenodd" clip-rule="evenodd" d="M16.9853 5C15.8482 5 14.9265 5.92177 14.9265 7.05882C14.9265 7.20147 14.9408 7.33948 14.9677 7.47192C15.0423 7.83955 14.9479 8.22125 14.7105 8.51169C14.4731 8.80212 14.1178 8.97059 13.7427 8.97059H10.2206C9.53023 8.97059 8.97059 9.53023 8.97059 10.2206V13.7427C8.97059 14.1178 8.80212 14.4731 8.51169 14.7105C8.22125 14.9479 7.83955 15.0423 7.47192 14.9677C7.33948 14.9408 7.20147 14.9265 7.05882 14.9265C5.92177 14.9265 5 15.8482 5 16.9853C5 18.1224 5.92177 19.0441 7.05882 19.0441C7.20147 19.0441 7.33948 19.0298 7.47192 19.0029C7.83954 18.9283 8.22125 19.0227 8.51168 19.2601C8.80212 19.4975 8.97059 19.8528 8.97059 20.2279V23.75C8.97059 24.4404 9.53023 25 10.2206 25H23.75C24.4404 25 25 24.4404 25 23.75V21.5065C22.7601 21.218 21.0294 19.3037 21.0294 16.9853C21.0294 14.6668 22.7601 12.7526 25 12.4641V10.2206C25 9.53023 24.4404 8.97059 23.75 8.97059H20.2279C19.8528 8.97059 19.4975 8.80212 19.2601 8.51168C19.0227 8.22125 18.9283 7.83954 19.0029 7.47192C19.0298 7.33948 19.0441 7.20147 19.0441 7.05882C19.0441 5.92177 18.1224 5 16.9853 5ZM12.4641 6.47059C12.7526 4.23068 14.6668 2.5 16.9853 2.5C19.3037 2.5 21.218 4.23068 21.5065 6.47059H23.75C25.8211 6.47059 27.5 8.14952 27.5 10.2206V13.7427C27.5 14.1178 27.3315 14.4731 27.0411 14.7105C26.7507 14.9479 26.369 15.0423 26.0013 14.9677C25.8689 14.9408 25.7309 14.9265 25.5882 14.9265C24.4512 14.9265 23.5294 15.8482 23.5294 16.9853C23.5294 18.1224 24.4512 19.0441 25.5882 19.0441C25.7309 19.0441 25.8689 19.0298 26.0013 19.0029C26.369 18.9283 26.7507 19.0227 27.0411 19.2601C27.3315 19.4975 27.5 19.8528 27.5 20.2279V23.75C27.5 25.8211 25.8211 27.5 23.75 27.5H10.2206C8.14952 27.5 6.47059 25.8211 6.47059 23.75V21.5065C4.23068 21.218 2.5 19.3037 2.5 16.9853C2.5 14.6668 4.23068 12.7526 6.47059 12.4641V10.2206C6.47059 8.14952 8.14952 6.47059 10.2206 6.47059H12.4641Z" fill="white"/>
</svg>
