<svg width="30" height="30" viewBox="0 0 30 30" fill="none" xmlns="http://www.w3.org/2000/svg">
<path fill-rule="evenodd" clip-rule="evenodd" d="M7.67995 4.54349C8.09745 5.09329 7.9902 5.87745 7.4404 6.29495C6.11624 7.30048 5.006 8.56007 4.17466 9.99999C3.82948 10.5979 3.06499 10.8027 2.46713 10.4575C1.86926 10.1123 1.66442 9.34785 2.0096 8.74999C3.0072 7.02209 4.3395 5.51057 5.92849 4.30394C6.47829 3.88644 7.26245 3.99369 7.67995 4.54349ZM22.32 4.54349C22.7375 3.99369 23.5217 3.88644 24.0715 4.30394C25.6605 5.51057 26.9928 7.02209 27.9904 8.74999C28.3355 9.34785 28.1307 10.1123 27.5328 10.4575C26.935 10.8027 26.1705 10.5979 25.8253 9.99999C24.994 8.56007 23.8837 7.30048 22.5595 6.29495C22.0097 5.87745 21.9025 5.09329 22.32 4.54349ZM15 7.50003C10.1675 7.50003 6.24998 11.4175 6.24998 16.25C6.24998 21.0825 10.1675 25 15 25C19.8325 25 23.75 21.0825 23.75 16.25C23.75 11.4175 19.8325 7.50003 15 7.50003ZM3.74998 16.25C3.74998 10.0368 8.78677 5.00003 15 5.00003C21.2132 5.00003 26.25 10.0368 26.25 16.25C26.25 22.4632 21.2132 27.5 15 27.5C8.78677 27.5 3.74998 22.4632 3.74998 16.25ZM15 10C15.6903 10 16.25 10.5597 16.25 11.25V15H20C20.6903 15 21.25 15.5597 21.25 16.25C21.25 16.9404 20.6903 17.5 20 17.5H15C14.3096 17.5 13.75 16.9404 13.75 16.25V11.25C13.75 10.5597 14.3096 10 15 10Z" fill="white"/>
</svg>
