<svg width="30" height="30" viewBox="0 0 30 30" fill="none" xmlns="http://www.w3.org/2000/svg">
<path fill-rule="evenodd" clip-rule="evenodd" d="M15 2.5C15.6904 2.5 16.25 3.05964 16.25 3.75V5.1037C19.7971 5.6988 22.5 8.78376 22.5 12.5V20H23.75C24.4404 20 25 20.5596 25 21.25C25 21.9404 24.4404 22.5 23.75 22.5H18.75C18.75 24.5711 17.0711 26.25 15 26.25C12.9289 26.25 11.25 24.5711 11.25 22.5H6.25C5.55964 22.5 5 21.9404 5 21.25C5 20.5596 5.55964 20 6.25 20H7.5V12.5C7.5 8.78375 10.2029 5.6988 13.75 5.1037V3.75C13.75 3.05964 14.3096 2.5 15 2.5ZM10 20H20V12.5C20 9.73858 17.7614 7.5 15 7.5C12.2386 7.5 10 9.73858 10 12.5V20ZM13.75 22.5C13.75 23.1904 14.3096 23.75 15 23.75C15.6904 23.75 16.25 23.1904 16.25 22.5H13.75Z" fill="white"/>
</svg>
