<svg width="30" height="30" viewBox="0 0 30 30" fill="none" xmlns="http://www.w3.org/2000/svg">
<path fill-rule="evenodd" clip-rule="evenodd" d="M6.24965 6.25C5.55952 6.25 5 6.80942 5 7.5V18.75C5 19.4406 5.55952 20 6.24965 20H11.25C12.1544 20 13.0073 20.1421 13.75 20.4802V8.75C13.75 7.69268 13.4865 7.12928 13.1786 6.82138C12.8707 6.51348 12.3073 6.25 11.25 6.25H6.24965ZM15 5.10828C14.9823 5.08993 14.9645 5.0717 14.9464 5.05362C14.0043 4.11152 12.6927 3.75 11.25 3.75H6.24965C4.17835 3.75 2.5 5.42916 2.5 7.5V22.5C2.5 24.5711 4.17893 26.25 6.25 26.25H23.75C25.8211 26.25 27.5 24.5711 27.5 22.5V7.5C27.5 5.42916 25.8216 3.75 23.7504 3.75H18.75C17.3073 3.75 15.9957 4.11152 15.0536 5.05362C15.0355 5.0717 15.0177 5.08993 15 5.10828ZM16.25 8.75V20.4802C16.9927 20.1421 17.8456 20 18.75 20H23.7504C24.4405 20 25 19.4406 25 18.75V7.5C25 6.80942 24.4405 6.25 23.7504 6.25H18.75C17.6927 6.25 17.1293 6.51348 16.8214 6.82138C16.5135 7.12928 16.25 7.69268 16.25 8.75ZM25 22.2867C24.6092 22.4249 24.1885 22.5 23.7504 22.5H18.75C17.6927 22.5 17.1293 22.7635 16.8214 23.0714C16.6682 23.2246 16.526 23.441 16.4218 23.75H23.75C24.4404 23.75 25 23.1904 25 22.5V22.2867ZM13.5782 23.75C13.474 23.441 13.3318 23.2246 13.1786 23.0714C12.8707 22.7635 12.3073 22.5 11.25 22.5H6.24965C5.81146 22.5 5.39085 22.4248 5 22.2867V22.5C5 23.1904 5.55964 23.75 6.25 23.75H13.5782Z" fill="white"/>
</svg>
