<svg width="30" height="30" viewBox="0 0 30 30" fill="none" xmlns="http://www.w3.org/2000/svg">
<path fill-rule="evenodd" clip-rule="evenodd" d="M13.6374 5.09191L13.0458 7.62736C12.9543 8.01978 12.6791 8.34399 12.3069 8.4982C11.9346 8.6524 11.5108 8.61768 11.1686 8.40494L8.95812 7.03081C8.23155 7.58262 7.58262 8.23155 7.03081 8.95812L8.40494 11.1686C8.61768 11.5108 8.6524 11.9346 8.4982 12.3069C8.34399 12.6791 8.01978 12.9543 7.62736 13.0458L5.09191 13.6374C5.03135 14.0824 5 14.5373 5 15C5 15.4627 5.03135 15.9176 5.09191 16.3626L7.62736 16.9542C8.01978 17.0457 8.34399 17.3209 8.4982 17.6931C8.6524 18.0654 8.61768 18.4892 8.40494 18.8314L7.03081 21.0419C7.58262 21.7684 8.23155 22.4174 8.95812 22.9692L11.1686 21.5951C11.5108 21.3823 11.9346 21.3476 12.3069 21.5018C12.6791 21.656 12.9543 21.9802 13.0458 22.3726L13.6374 24.9081C14.0824 24.9687 14.5373 25 15 25C15.4627 25 15.9176 24.9687 16.3626 24.9081L16.9542 22.3726C17.0457 21.9802 17.3209 21.656 17.6931 21.5018C18.0654 21.3476 18.4892 21.3823 18.8314 21.5951L21.0419 22.9692C21.7684 22.4174 22.4174 21.7684 22.9692 21.0419L21.5951 18.8314C21.3823 18.4892 21.3476 18.0654 21.5018 17.6931C21.656 17.3209 21.9802 17.0457 22.3726 16.9542L24.9081 16.3626C24.9687 15.9176 25 15.4627 25 15C25 14.5373 24.9687 14.0824 24.9081 13.6374L22.3726 13.0458C21.9802 12.9543 21.656 12.6791 21.5018 12.3069C21.3476 11.9346 21.3823 11.5108 21.5951 11.1686L22.9692 8.95812C22.4174 8.23155 21.7684 7.58262 21.0419 7.03081L18.8314 8.40494C18.4892 8.61768 18.0654 8.6524 17.6931 8.4982C17.3209 8.34399 17.0457 8.01978 16.9542 7.62736L16.3626 5.09191C15.9176 5.03135 15.4627 5 15 5C14.5373 5 14.0824 5.03135 13.6374 5.09191ZM12.3428 2.78328C13.2002 2.59757 14.0894 2.5 15 2.5C15.9106 2.5 16.7998 2.59757 17.6572 2.78328C18.1293 2.88552 18.5002 3.25058 18.6099 3.72094L18.9926 5.36108L20.422 4.47249C20.8321 4.21751 21.3525 4.22163 21.7586 4.48308C23.2641 5.45239 24.5476 6.73589 25.5169 8.24141C25.7784 8.64749 25.7825 9.16785 25.5275 9.57802L24.6389 11.0074L26.2791 11.3901C26.7494 11.4998 27.1145 11.8707 27.2167 12.3428C27.4024 13.2002 27.5 14.0894 27.5 15C27.5 15.9106 27.4024 16.7998 27.2167 17.6572C27.1145 18.1293 26.7494 18.5002 26.2791 18.6099L24.6389 18.9926L25.5275 20.422C25.7825 20.8321 25.7784 21.3525 25.5169 21.7586C24.5476 23.2641 23.2641 24.5476 21.7586 25.5169C21.3525 25.7784 20.8321 25.7825 20.422 25.5275L18.9926 24.6389L18.6099 26.2791C18.5002 26.7494 18.1293 27.1145 17.6572 27.2167C16.7998 27.4024 15.9106 27.5 15 27.5C14.0894 27.5 13.2002 27.4024 12.3428 27.2167C11.8707 27.1145 11.4998 26.7494 11.3901 26.2791L11.0074 24.6389L9.57802 25.5275C9.16785 25.7825 8.64749 25.7784 8.24141 25.5169C6.73589 24.5476 5.45239 23.2641 4.48308 21.7586C4.22163 21.3525 4.21751 20.8321 4.47249 20.422L5.36108 18.9926L3.72094 18.6099C3.25058 18.5002 2.88552 18.1293 2.78328 17.6572C2.59757 16.7998 2.5 15.9106 2.5 15C2.5 14.0894 2.59757 13.2002 2.78328 12.3428C2.88552 11.8707 3.25058 11.4998 3.72094 11.3901L5.36108 11.0074L4.47249 9.57802C4.21751 9.16785 4.22163 8.64749 4.48308 8.24141C5.45238 6.73589 6.73589 5.45238 8.24141 4.48308C8.64749 4.22163 9.16785 4.21751 9.57802 4.47249L11.0074 5.36108L11.3901 3.72094C11.4998 3.25058 11.8707 2.88552 12.3428 2.78328ZM15 12.5C13.6193 12.5 12.5 13.6193 12.5 15C12.5 16.3807 13.6193 17.5 15 17.5C16.3807 17.5 17.5 16.3807 17.5 15C17.5 13.6193 16.3807 12.5 15 12.5ZM10 15C10 12.2386 12.2386 10 15 10C17.7614 10 20 12.2386 20 15C20 17.7614 17.7614 20 15 20C12.2386 20 10 17.7614 10 15Z" fill="white"/>
</svg>
